# xmcd CD database file generated by Grip 3.0.7
# 
# Track frame offsets:
#       150
#       13572
#       28812
#       41847
#       54850
#       69382
#       83175
#       97785
#       112507
#       126417
#       140687
#       154165
#       167192
#       180450
#       195340
#       210410
#       225100
#       239447
#       255132
#       270987
#       284025
#       298275
#       311080
# 
# Disc length: 4315 seconds
# 
# Revision: 1
# Processed by: cddbd v1.5PL3 Copyright (c) Steve Scherf et al.
# Submitted via: Grip 3.0.7
# 
DISCID=3510d917
DTITLE=Various Artist - Shake Your Wicked Knees:  Rent Parties and Good Times
DYEAR=1998
DGENRE=Blues
TTITLE0=Romeo Nelson - Head Rag Hop
TTITLE1=Pine Top Smith - Pine Top's Boogie Woogie
TTITLE2=Pine Top Smith - Pine Top's Blues
TTITLE3=Cow Cow Davenport - Back In The Alley
TTITLE4=Joe Dean - I'm So Glad I'm 21 Years Old Today
TTITLE5=Will Ezell - Pitchin' Boogie
TTITLE6=Mead Lux Lewis - Honky Tonk Train Blues
TTITLE7=Charles Avery - Dearborn Street Breakdown
TTITLE8=Jim Clarke - Fat Fanny Stomp
TTITLE9=Cow Cow Davenport - Cow Cow Blues
TTITLE10=Hokum Boys and Jane Lucas - Hip Shakin' Strut
TTITLE11=Lil Johnson - House Rent Scuffle
TTITLE12=Romeo Nelson - Gettin' Dirty Just Shakin' That Thing
TTITLE13=Pine Top Smith - Jump Steady Blues
TTITLE14=Montana Taylor - Detroit Rocks
TTITLE15=Montana Taylor - Whoop And Holler Stomp
TTITLE16=Pine Top Smith - I'm Sober Now
TTITLE17=Montana Taylor - Indiana Avenue Stomp
TTITLE18=Henry Brown - Stomp 'Em Down To The Bricks
TTITLE19=Hokum Boys and Jane Lucas - Hokum Stomp
TTITLE20=Jimmy Yancey - Jimmy's Rocks
TTITLE21=Cow Cow Davenport - Mooch Piddle
TTITLE22=Mozelle Alderson - Tight Whoopee
EXTD=
EXTT0=
EXTT1=
EXTT2=
EXTT3=
EXTT4=
EXTT5=
EXTT6=
EXTT7=
EXTT8=
EXTT9=
EXTT10=
EXTT11=
EXTT12=
EXTT13=
EXTT14=
EXTT15=
EXTT16=
EXTT17=
EXTT18=
EXTT19=
EXTT20=
EXTT21=
EXTT22=
PLAYORDER=
